<?xml version="1.0" standalone="no"?>
<!DOCTYPE svg PUBLIC "-//W3C//DTD SVG 20010904//EN"
 "http://www.w3.org/TR/2001/REC-SVG-20010904/DTD/svg10.dtd">
<svg version="1.0" xmlns="http://www.w3.org/2000/svg"
 width="3375.000000pt" height="3375.000000pt" viewBox="0 0 3375.000000 3375.000000"
 preserveAspectRatio="xMidYMid meet">
<metadata>
Created by potrace 1.10, written by Peter Selinger 2001-2011
</metadata>
<g transform="translate(0.000000,3375.000000) scale(0.050000,-0.050000)"
fill="#000000" stroke="none">
<path d="M3676 66202 c-382 -447 -67 -1118 642 -1371 211 -75 231 -90 120 -90
-655 -5 -1256 676 -1088 1231 38 125 38 123 -19 69 -115 -108 -184 -401 -142
-603 96 -462 546 -787 1157 -837 408 -33 430 -79 34 -70 -725 16 -1115 223
-1296 689 -47 120 -182 -337 -198 -670 -59 -1203 933 -1807 1735 -1057 107
100 122 99 58 -5 -258 -417 -916 -588 -1284 -334 -101 69 -110 51 -24 -49 200
-235 634 -274 976 -89 197 107 332 289 473 640 l76 189 -93 -91 c-250 -245
-671 -365 -856 -244 -69 45 -92 36 -54 -21 42 -65 166 -129 250 -129 52 0 60
-5 40 -25 -56 -56 -382 -31 -526 40 -410 202 -673 862 -557 1396 35 161 36
162 117 36 204 -316 573 -451 1113 -407 285 23 429 11 477 -41 18 -19 5 -21
-58 -12 -45 7 -199 -6 -350 -28 -439 -66 -669 -53 -851 49 -125 70 -135 51
-25 -54 204 -195 424 -231 824 -131 87 21 167 36 179 32 39 -13 -386 -160
-501 -173 -112 -13 -114 -14 -65 -42 110 -63 270 -37 500 82 116 60 257 124
314 144 287 97 299 247 34 442 -65 48 -149 120 -188 161 -44 47 -158 117 -310
191 -541 263 -798 760 -590 1138 67 121 67 122 42 122 -11 0 -49 -35 -86 -78z"/>
<path d="M4480 66247 c-152 -16 -317 -55 -461 -110 l-151 -57 -2 -110 c-2 -60
1 -110 5 -110 4 0 62 27 127 61 980 497 2153 -288 2152 -1441 -1 -716 -520
-1384 -1171 -1507 -27 -5 -96 -55 -154 -111 l-105 -102 75 0 c491 1 1106 421
1373 937 619 1201 -367 2692 -1688 2550z"/>
<path d="M4660 65741 c0 -94 204 -200 390 -202 133 -1 258 -63 195 -96 -65
-35 -133 -28 -241 27 -224 112 -439 -8 -458 -256 l-8 -104 38 80 c50 103 114
161 220 198 92 33 107 19 41 -40 -138 -123 -126 -466 20 -596 52 -46 53 -40
11 61 -46 108 -42 298 7 408 l40 89 -10 -132 c-13 -168 25 -253 201 -462 231
-272 242 -444 55 -812 -94 -183 -104 -244 -26 -144 30 38 115 136 188 217 302
337 311 590 29 870 -282 280 -212 570 133 548 143 -9 126 53 -29 106 -50 17
-125 61 -167 97 l-77 67 -171 -11 c-177 -11 -268 10 -345 80 -25 22 -36 25
-36 7z"/>
<path d="M5028 64326 c-85 -113 -121 -138 -316 -220 -206 -86 -330 -195 -416
-367 -70 -140 -79 -140 207 -3 347 166 496 311 567 551 38 126 30 133 -42 39z"/>
<path d="M5004 63889 c-56 -63 -102 -150 -154 -295 -150 -409 -544 -814 -793
-814 -20 0 -37 -10 -37 -23 0 -63 353 35 517 144 231 154 350 345 422 676 22
103 62 236 90 295 59 131 56 132 -45 17z"/>
<path d="M2750 62653 c-329 -86 -570 -328 -603 -606 -33 -275 256 -391 450
-181 l48 52 -87 -2 c-172 -2 -231 171 -128 377 192 384 773 408 850 35 31
-145 -5 -375 -67 -437 -25 -25 -44 -71 -45 -108 -5 -143 -388 -462 -388 -323
0 63 86 315 118 347 30 30 34 47 18 73 -16 25 -2 100 61 310 94 315 94 324 -9
210 -86 -94 -163 -140 -238 -140 -57 0 -88 50 -53 85 54 54 -17 79 -83 30 -96
-70 -31 -180 106 -179 68 1 80 -4 73 -32 -6 -19 -24 -85 -41 -146 -17 -62 -45
-124 -61 -137 -19 -16 -25 -44 -18 -80 16 -83 -82 -388 -138 -429 -43 -31 -33
-32 185 -27 305 7 470 97 622 341 36 57 78 115 94 128 16 13 31 63 34 110 3
47 12 140 20 206 45 371 -311 630 -720 523z"/>
<path d="M3955 62598 c-20 -35 -68 -75 -114 -94 -58 -24 -77 -43 -70 -67 15
-46 -124 -542 -159 -568 -18 -13 -23 -32 -13 -47 20 -33 -22 -197 -69 -269
l-35 -53 125 0 c119 0 124 2 113 44 -16 61 25 217 70 267 26 30 31 47 15 63
-46 46 80 226 159 226 33 0 19 -72 -37 -187 -20 -43 -33 -89 -27 -103 5 -14
-5 -75 -23 -137 -54 -186 75 -276 201 -140 49 53 72 118 25 71 -81 -81 -102
73 -26 189 31 47 47 139 57 325 6 120 -101 135 -225 30 -34 -28 -62 -42 -62
-31 0 20 125 440 151 508 22 58 -19 39 -56 -27z"/>
<path d="M6595 62591 c-30 -37 -85 -79 -121 -92 -54 -20 -66 -33 -59 -69 11
-59 -110 -511 -148 -554 -17 -18 -25 -43 -17 -56 20 -33 -28 -212 -73 -270
l-40 -50 129 0 c126 0 128 1 119 49 -25 130 95 411 175 411 52 0 51 -11 -20
-190 -91 -229 -80 -290 53 -290 57 0 147 82 146 134 0 34 -1 34 -21 1 -27 -47
-78 -45 -78 4 0 54 36 144 76 187 83 93 43 254 -63 254 l-62 0 63 63 c64 64
137 69 114 8 -17 -44 38 -39 81 7 41 46 35 119 -13 149 -58 36 -164 -32 -258
-166 -47 -66 -89 -117 -93 -113 -9 9 50 216 128 457 60 186 56 218 -18 126z"/>
<path d="M5160 62208 c-27 -15 -70 -28 -95 -28 -36 0 -45 -11 -45 -55 0 -79
-39 -209 -74 -249 -16 -18 -24 -43 -17 -54 19 -31 -41 -240 -81 -284 -33 -37
-31 -38 100 -38 123 0 132 3 114 37 -23 42 18 224 61 277 14 17 23 56 20 86
-6 62 98 200 151 200 38 0 20 -125 -30 -200 -18 -27 -34 -81 -36 -120 -1 -38
-10 -108 -18 -155 -18 -102 9 -145 93 -145 60 0 157 76 157 123 0 19 -5 20
-24 1 -84 -84 -95 54 -15 191 21 36 33 78 27 93 -6 15 3 75 21 134 54 183 -41
254 -198 147 l-74 -50 13 60 c7 34 10 60 7 59 -4 -1 -29 -14 -57 -30z"/>
<path d="M4465 62180 c-132 -81 -160 -243 -43 -255 72 -8 112 24 79 63 -55 67
63 236 123 176 64 -64 -7 -191 -150 -266 -167 -87 -232 -150 -253 -244 -30
-130 112 -202 224 -114 65 50 71 50 79 -5 15 -108 258 -30 255 83 0 28 -3 27
-21 -3 -11 -19 -34 -35 -52 -35 -42 0 -25 139 27 216 19 30 33 67 29 84 -3 16
5 77 19 135 44 184 -133 277 -316 165z m93 -408 c-31 -124 -148 -217 -189
-151 -27 45 14 118 106 185 113 84 113 84 83 -34z"/>
<path d="M5795 62189 c-118 -65 -164 -270 -59 -269 93 1 127 23 94 60 -60 66
39 234 111 189 88 -54 -9 -212 -183 -300 -154 -78 -218 -147 -218 -239 0 -121
114 -166 229 -91 58 39 58 39 80 -5 45 -91 186 -61 244 52 32 63 32 64 -7 29
-92 -82 -116 56 -32 184 18 27 34 76 36 110 2 34 10 98 19 144 28 148 -149
225 -314 136z m81 -438 c-33 -99 -121 -169 -165 -132 -48 40 -39 62 74 168
113 106 135 97 91 -36z"/>
<path d="M3470 61291 c-11 -4 -45 -13 -75 -20 -147 -32 -243 -201 -158 -278
54 -49 63 -42 63 49 0 144 187 263 276 174 65 -65 29 -139 -158 -324 -181
-181 -221 -235 -245 -336 -13 -54 13 -94 37 -56 16 26 152 25 341 -3 176 -26
243 3 277 120 22 77 9 94 -48 63 -24 -13 -103 -23 -176 -23 -74 0 -173 -9
-222 -19 -48 -11 -91 -15 -96 -11 -19 19 105 112 192 144 365 135 462 358 212
484 -45 23 -190 46 -220 36z"/>
<path d="M5022 61280 c-151 -36 -253 -163 -202 -253 48 -86 80 -82 80 9 0 143
138 242 268 192 96 -37 46 -142 -181 -375 -125 -128 -185 -207 -202 -262 -23
-76 -6 -141 24 -93 17 28 155 28 334 0 201 -31 297 22 297 163 0 44 -8 47 -59
20 -20 -11 -120 -24 -223 -29 -104 -5 -210 -16 -238 -24 l-50 -14 47 52 c48
52 67 62 299 165 286 126 287 386 2 448 -111 23 -101 23 -196 1z"/>
<path d="M4130 61241 c-322 -155 -322 -562 0 -713 341 -161 700 158 569 506
-76 201 -363 306 -569 207z m267 -52 c118 -150 93 -579 -38 -649 -199 -107
-304 458 -123 665 44 50 115 43 161 -16z"/>
<path d="M5710 61018 c-298 -320 -297 -318 -101 -318 174 0 203 -43 98 -147
l-52 -53 237 1 c179 0 229 6 201 22 -31 18 -93 129 -93 166 0 6 18 11 40 11
23 0 40 13 40 31 0 18 -14 28 -35 25 -32 -5 -35 18 -38 254 -4 330 1 330 -297
8z m70 -137 c0 -138 2 -136 -136 -125 l-106 8 106 116 c133 145 136 145 136 1z"/>
</g>
</svg>
